<?xml version="1.0" encoding="UTF-8" standalone="no"?>
<!-- Created with Inkscape (http://www.inkscape.org/) -->

<svg
   xmlns:dc="http://purl.org/dc/elements/1.1/"
   xmlns:cc="http://creativecommons.org/ns#"
   xmlns:rdf="http://www.w3.org/1999/02/22-rdf-syntax-ns#"
   xmlns:svg="http://www.w3.org/2000/svg"
   xmlns="http://www.w3.org/2000/svg"
   xmlns:sodipodi="http://sodipodi.sourceforge.net/DTD/sodipodi-0.dtd"
   xmlns:inkscape="http://www.inkscape.org/namespaces/inkscape"
   width="210mm"
   height="297mm"
   viewBox="0 0 210 297"
   version="1.1"
   id="svg8"
   inkscape:version="0.92.3 (d244b95, 2018-08-02)"
   sodipodi:docname="patientDirect_logo.svg">
  <defs
     id="defs2" />
  <sodipodi:namedview
     id="base"
     pagecolor="#ffffff"
     bordercolor="#666666"
     borderopacity="1.0"
     inkscape:pageopacity="0.0"
     inkscape:pageshadow="2"
     inkscape:zoom="0.35"
     inkscape:cx="328.56444"
     inkscape:cy="445.71429"
     inkscape:document-units="mm"
     inkscape:current-layer="layer1"
     showgrid="false"
     inkscape:window-width="927"
     inkscape:window-height="1025"
     inkscape:window-x="67"
     inkscape:window-y="27"
     inkscape:window-maximized="0" />
  <metadata
     id="metadata5">
    <rdf:RDF>
      <cc:Work
         rdf:about="">
        <dc:format>image/svg+xml</dc:format>
        <dc:type
           rdf:resource="http://purl.org/dc/dcmitype/StillImage" />
        <dc:title />
      </cc:Work>
    </rdf:RDF>
  </metadata>
  <g
     inkscape:label="Layer 1"
     inkscape:groupmode="layer"
     id="layer1">
    <g
       id="g861"
       transform="matrix(1.2652571,0,0,1.2652571,-22.067747,-0.52450023)">
      <path
         style="fill:#a8dbe3;stroke-width:0.26586872"
         d="m 86.910309,166.96902 c -0.840828,-0.46225 -2.53341,-2.14835 -2.946469,-2.93519 -0.303999,-0.57908 -0.37689,-2.482 -0.37689,-9.83928 v -9.12136 l 1.2807,-2.19883 c 1.126332,-1.9338 1.647076,-2.49726 4.320367,-4.67474 2.631229,-2.14323 3.614773,-2.74652 7.319704,-4.4898 5.972269,-2.81014 11.988829,-4.45716 19.116409,-5.2331 11.57173,-1.25973 13.67535,-1.41327 21.80124,-1.59119 6.35476,-0.13913 8.77693,-0.28334 9.57127,-0.56985 l 1.06348,-0.38357 v -10.86336 -10.86336 l -1.04131,-0.89992 -1.0413,-0.89992 h -16.19332 -16.19332 l -3.23727,0.91553 c -5.12348,1.44897 -8.13603,3.17185 -12.234286,6.99675 -1.839381,1.7167 -3.837909,3.68957 -4.441173,4.38415 -1.030063,1.18598 -1.84926,1.62022 -1.84926,0.98025 0,-0.15545 0.901912,-1.99953 2.004251,-4.09796 1.777085,-3.38289 2.310171,-4.14187 4.703367,-6.69642 3.677181,-3.92511 6.704601,-5.847923 12.700801,-8.066696 l 3.05749,-1.131365 17.91233,0.169271 17.91233,0.169273 1.556,0.829341 c 1.39685,0.744512 1.61787,0.982284 2.16076,2.324538 l 0.60476,1.495188 -0.0976,13.69224 c -0.10242,14.36316 -0.13284,14.73607 -1.30831,16.03794 -0.25032,0.27724 -1.11316,0.83156 -1.91741,1.23182 l -1.46228,0.72775 -12.89463,0.31878 c -16.81033,0.41558 -20.61984,0.7551 -27.41999,2.44385 -4.71237,1.17026 -5.64308,1.50086 -9.571279,3.39983 -4.007791,1.93744 -4.541589,2.2823 -6.761335,4.36816 -1.819284,1.70955 -2.488909,2.52799 -2.731891,3.33899 -0.182179,0.60806 -0.394472,3.65686 -0.489146,7.02473 l -0.167268,5.9504 0.639276,0.87928 0.639273,0.87928 10.10301,-0.17065 c 5.55666,-0.0939 10.56638,-0.24814 11.1327,-0.34285 0.90848,-0.15193 1.0935,-0.31615 1.57167,-1.39498 0.53504,-1.20711 0.53751,-1.35024 0.19265,-11.16679 -0.39795,-11.32832 -0.57029,-10.3766 1.98245,-10.94788 1.22869,-0.27497 1.51932,-0.24839 2.62303,0.23983 l 1.24125,0.54906 v 12.81076 12.81075 l -0.79864,1.39588 c -0.64732,1.13139 -1.04708,1.50275 -2.10977,1.95991 -1.28199,0.5515 -1.62318,0.56385 -15.35289,0.55595 -9.694478,-0.006 -14.206377,-0.0986 -14.573491,-0.30042 z m -21.00363,-34.24678 -12.229962,-0.14059 -1.462278,-0.82601 c -1.341345,-0.75771 -1.514223,-0.96659 -2.0904,-2.52575 l -0.628123,-1.69974 0.166,-13.79089 0.166001,-13.790891 0.825852,-1.042722 c 0.454218,-0.573497 1.392652,-1.329944 2.085413,-1.680992 1.245792,-0.631289 1.411864,-0.642841 15.189591,-1.056504 17.044254,-0.511736 20.539644,-0.825004 26.829569,-2.404565 4.145529,-1.041048 5.240852,-1.441301 9.325228,-3.407618 4.06155,-1.955326 4.89327,-2.468785 6.79559,-4.19522 3.03757,-2.756718 3.05074,-2.797409 3.33747,-10.309246 l 0.23723,-6.215094 -0.68991,-1.042511 -0.6899,-1.042509 -9.22677,0.152928 c -8.95062,0.148352 -11.492774,0.262115 -12.715627,0.569031 -0.387251,0.09719 -0.779187,0.595097 -1.153647,1.465551 l -0.567138,1.318347 0.410036,9.732976 c 0.292392,6.940456 0.328253,9.83152 0.124985,10.076438 -0.156777,0.188908 -0.937509,0.489481 -1.734961,0.667942 -1.200923,0.268757 -1.665375,0.257571 -2.704608,-0.06513 l -1.254698,-0.389607 -0.06906,-12.711666 -0.06906,-12.711665 0.828891,-1.448753 c 0.698562,-1.220955 1.059508,-1.550741 2.295564,-2.097383 l 1.46667,-0.648632 h 13.922763 13.92277 l 1.73041,1.696676 1.73041,1.696676 v 9.512911 9.512911 l -1.19023,2.017382 c -1.03522,1.754638 -1.61522,2.357677 -4.45331,4.630179 -2.75081,2.202627 -3.86826,2.896698 -7.11816,4.421267 -5.37691,2.522371 -11.732921,4.293009 -18.096574,5.041294 -10.916301,1.283619 -18.78043,1.882749 -24.712557,1.882749 -5.628005,0 -7.886387,0.2285 -8.719436,0.88223 -0.279817,0.21958 -0.332416,2.32916 -0.265869,10.66284 0.09157,11.46719 0.08626,11.42977 1.783958,12.5726 l 0.903393,0.60813 15.846337,-0.001 15.84634,-10e-4 3.323359,-0.89739 c 2.561377,-0.69163 4.09318,-1.30898 6.680907,-2.69256 3.132362,-1.67478 3.622742,-2.05126 7.311392,-5.6132 2.17462,-2.09991 4.05164,-3.81899 4.17116,-3.82019 0.35641,-0.004 -0.0715,1.03333 -1.67557,4.05976 -1.27343,2.40265 -2.01447,3.3926 -4.58757,6.12847 -3.81814,4.05968 -6.454939,5.77554 -12.046796,7.8393 l -3.735706,1.37879 -5.5697,-0.0588 c -3.063334,-0.0324 -11.073183,-0.12208 -17.799662,-0.1994 z"
         id="path875"
         inkscape:connector-curvature="0" />
      <path
         style="fill:#59d1ca;stroke-width:0.26586872"
         d="m 86.398943,166.23024 c -0.540809,-0.42978 -1.334927,-1.2239 -1.764707,-1.76471 l -0.781417,-0.98329 v -9.17901 -9.17901 l 1.20602,-2.05715 c 1.051881,-1.79422 1.62105,-2.39288 4.453301,-4.68402 4.477025,-3.62168 8.673495,-5.6186 16.08459,-7.65397 5.45325,-1.49766 5.7137,-1.53732 19.46574,-2.96391 2.26653,-0.23512 7.94948,-0.51131 12.62877,-0.61377 6.3546,-0.13913 8.77695,-0.28335 9.57127,-0.56984 l 1.06348,-0.38356 v -11.12583 -11.12582 l -1.06348,-0.89938 -1.06347,-0.89938 -16.42177,-0.004 -16.42176,-0.004 -2.96138,0.82196 c -4.59826,1.2763 -8.79248,3.60437 -12.242944,6.79564 -1.503193,1.39028 -3.349622,3.20618 -4.103176,4.03534 -0.753554,0.82916 -1.447576,1.43169 -1.542267,1.33895 -0.09469,-0.0927 0.612314,-1.65941 1.571124,-3.48151 1.512533,-2.87437 2.133629,-3.73187 4.69215,-6.47811 3.698603,-3.96996 6.469523,-5.784788 11.903723,-7.796418 l 3.64914,-1.35082 h 8.38431 c 4.61137,0 12.71904,0.07937 18.01704,0.176372 l 9.63274,0.176369 1.35775,0.820638 c 1.2506,0.755879 1.40637,0.96583 1.97385,2.660581 l 0.61611,1.839948 -0.14316,12.51696 c -0.0787,6.88434 -0.20613,13.03476 -0.28309,13.66762 -0.17844,1.46738 -1.49348,2.97484 -3.22731,3.69954 -1.15724,0.48369 -2.31853,0.55266 -14.15529,0.84063 -16.62263,0.40441 -20.39373,0.73101 -26.98568,2.33708 -4.68195,1.14072 -5.40161,1.40062 -9.837142,3.55253 -4.393172,2.13135 -4.972399,2.49659 -7.062986,4.45358 -1.722736,1.61265 -2.35711,2.39803 -2.60486,3.22494 -0.196987,0.6575 -0.385443,3.60692 -0.472884,7.40095 l -0.145377,6.30782 0.773635,0.79761 0.773636,0.79761 9.819728,-0.18494 c 5.40085,-0.10172 10.44595,-0.25964 11.21133,-0.35094 1.34502,-0.16045 1.40954,-0.20656 1.92754,-1.37761 0.64399,-1.45583 0.65604,-2.14458 0.22836,-13.05279 -0.35566,-9.07113 -0.45308,-8.54406 1.67399,-9.05644 1.2374,-0.29806 2.52739,-0.0809 3.35277,0.56446 0.25771,0.2015 0.3312,3.10332 0.32729,12.92253 l -0.005,12.66268 -0.80124,1.27604 c -0.58929,0.93849 -1.12127,1.41323 -2.01101,1.79462 -1.14859,0.49234 -1.91932,0.51856 -15.24221,0.51856 H 87.382229 Z m -18.387538,-33.77916 -14.379138,-0.16889 -1.307117,-0.8007 c -1.122381,-0.68754 -1.389433,-1.02335 -1.889521,-2.37602 -0.681688,-1.84388 -0.725216,-3.78948 -0.436982,-19.53176 l 0.177026,-9.668527 1.04036,-1.128655 c 1.754936,-1.903883 1.617516,-1.885296 17.349334,-2.346605 16.6443,-0.488063 19.963131,-0.77916 26.07679,-2.2872 3.920113,-0.966962 5.112715,-1.399828 9.281053,-3.368628 4.47798,-2.115053 4.9401,-2.403353 7.24778,-4.521649 3.13991,-2.882235 3.15932,-2.945052 3.40011,-11.004557 l 0.1799,-6.0211 -0.91067,-0.993708 -0.91067,-0.993708 -10.7615,0.235153 c -12.152132,0.265541 -11.756059,0.191468 -12.581566,2.353023 -0.446385,1.168849 -0.450583,1.743025 -0.0794,10.857542 0.215548,5.292888 0.340437,9.758143 0.277532,9.92279 -0.0629,0.164648 -0.7952,0.440989 -1.627326,0.614091 -1.233373,0.256574 -1.709478,0.245447 -2.576431,-0.0602 L 84.517491,90.786838 84.45579,78.317719 84.39409,65.8486 85.120462,64.519256 c 0.583742,-1.068313 1.013505,-1.471235 2.18865,-2.051948 l 1.462278,-0.722607 13.72215,-0.0085 13.72215,-0.0085 0.98328,0.781418 c 0.54081,0.429779 1.33493,1.223897 1.76471,1.764706 l 0.78142,0.983286 v 9.288832 9.288834 l -1.10511,1.860169 c -0.90126,1.51705 -1.67366,2.327032 -4.18743,4.39121 -2.5773,2.116342 -3.71397,2.83511 -6.93742,4.386866 -5.45729,2.627113 -12.078631,4.482231 -18.74375,5.25148 -11.214829,1.294358 -18.950349,1.883518 -24.730051,1.883518 -5.495866,0 -7.75834,0.23236 -8.586016,0.88181 -0.477202,0.37445 -0.351385,21.55743 0.133052,22.401 0.174045,0.30307 0.778682,0.87136 1.343634,1.26287 l 1.027189,0.71185 16.070768,-5.4e-4 16.070768,-5.3e-4 3.05749,-0.8147 c 2.223599,-0.5925 3.963896,-1.28933 6.38085,-2.55496 3.360316,-1.75961 4.432816,-2.58313 8.750456,-6.71906 1.23017,-1.1784 2.2897,-2.08952 2.35451,-2.02471 0.0648,0.0648 -0.52295,1.33155 -1.30613,2.81498 -1.15147,2.181 -1.99489,3.3105 -4.40733,5.90224 -3.74179,4.0199 -6.353813,5.7223 -12.005164,7.82444 l -3.822033,1.42195 -3.356422,-0.0473 c -1.846031,-0.026 -9.827033,-0.12332 -17.735556,-0.2162 z"
         id="path873"
         inkscape:connector-curvature="0" />
      <path
         style="fill:#6390d2;stroke-width:0.26586872"
         d="m 86.47421,166.02829 c -0.506289,-0.39463 -1.243399,-1.13174 -1.638023,-1.63803 l -0.7175,-0.92053 v -9.17275 -9.17276 l 1.1869,-2.02453 c 1.019508,-1.73901 1.622424,-2.37682 4.274996,-4.52246 4.319091,-3.49367 8.731571,-5.58179 16.031277,-7.58649 4.37578,-1.2017 6.04898,-1.52476 10.27814,-1.98446 11.98833,-1.30309 16.23426,-1.60373 22.73178,-1.60955 6.54609,-0.006 8.72333,-0.24894 9.73266,-1.08661 0.34316,-0.28479 0.38638,-1.83077 0.31734,-11.35086 l -0.0799,-11.02116 -1.19641,-1.03142 -1.19641,-1.03143 -16.42177,-8e-4 -16.42176,-7.9e-4 -2.96138,0.82196 c -4.58581,1.27284 -8.78975,3.60378 -12.242944,6.78828 -1.503193,1.38623 -3.241551,3.07921 -3.863019,3.76219 -0.621469,0.68297 -1.129943,1.11588 -1.129943,0.96202 0,-0.15387 0.656728,-1.53729 1.459394,-3.07427 1.194572,-2.28741 1.973075,-3.34496 4.290196,-5.82794 3.605486,-3.86358 6.407796,-5.681554 11.880746,-7.707527 l 3.76495,-1.393707 17.8038,0.180368 17.80381,0.180365 1.32512,0.748649 c 1.22419,0.691623 1.37184,0.887122 1.93835,2.566527 l 0.61322,1.817875 -0.14316,12.51697 c -0.0787,6.88433 -0.20549,13.03049 -0.28167,13.65813 -0.17696,1.45803 -1.27815,2.73887 -2.95871,3.44136 -1.16262,0.486 -2.30665,0.55406 -14.15944,0.84243 -16.62263,0.40441 -20.39373,0.731 -26.98568,2.33708 -4.67872,1.13993 -5.40467,1.40195 -9.837142,3.55053 -4.478383,2.17083 -4.940367,2.46525 -7.195649,4.58561 -1.838062,1.7281 -2.4878,2.52547 -2.737791,3.35987 -0.197352,0.6587 -0.385545,3.604 -0.472949,7.40185 l -0.14517,6.30798 0.888946,0.93054 0.888945,0.93055 10.23595,-0.19873 c 5.62977,-0.10929 10.71451,-0.29248 11.29942,-0.40707 0.91091,-0.17846 1.14979,-0.37879 1.6652,-1.39649 0.59683,-1.17845 0.60008,-1.24558 0.39881,-8.23366 -0.11161,-3.87504 -0.20293,-8.47353 -0.20293,-10.21887 v -3.17334 l 1.36476,-0.34625 c 1.1292,-0.28649 1.5422,-0.28482 2.39282,0.01 l 1.02806,0.35589 0.069,12.68323 0.0691,12.68322 -0.70839,1.20879 c -0.52044,0.88807 -1.02075,1.34267 -1.88571,1.71343 -1.10667,0.47438 -2.01894,0.50467 -15.20351,0.50467 H 87.394738 Z m -18.462805,-33.57721 -14.379138,-0.16889 -1.307117,-0.8007 c -1.122381,-0.68754 -1.389433,-1.02335 -1.889521,-2.37602 -0.681688,-1.84388 -0.725216,-3.78948 -0.436982,-19.53176 l 0.177026,-9.668527 1.04036,-1.128655 c 1.754936,-1.903883 1.617516,-1.885296 17.349334,-2.346605 16.6443,-0.488063 19.963131,-0.77916 26.07679,-2.2872 3.920113,-0.966962 5.112715,-1.399828 9.281053,-3.368628 4.47798,-2.115053 4.9401,-2.403353 7.24778,-4.521649 3.13991,-2.882235 3.15932,-2.945052 3.40011,-11.004557 l 0.1799,-6.0211 -0.91067,-0.993708 -0.91067,-0.993708 -10.7615,0.235153 c -12.152132,0.265541 -11.756059,0.191468 -12.581566,2.353023 -0.446385,1.168849 -0.450583,1.743025 -0.0794,10.857542 0.215548,5.292888 0.340437,9.758143 0.277532,9.92279 -0.0629,0.164648 -0.7952,0.440989 -1.627326,0.614091 -1.233373,0.256574 -1.709478,0.245447 -2.576431,-0.0602 L 84.517491,90.786838 84.45579,78.317719 84.39409,65.8486 85.120462,64.519256 c 0.583742,-1.068313 1.013505,-1.471235 2.18865,-2.051948 l 1.462278,-0.722607 13.72215,-0.0085 13.72215,-0.0085 0.98328,0.781418 c 0.54081,0.429779 1.33493,1.223897 1.76471,1.764706 l 0.78142,0.983286 v 9.288832 9.288834 l -1.10511,1.860169 c -0.90126,1.51705 -1.67366,2.327032 -4.18743,4.39121 -2.5773,2.116342 -3.71397,2.83511 -6.93742,4.386866 -5.45729,2.627113 -12.078631,4.482231 -18.74375,5.25148 -11.214829,1.294358 -18.950349,1.883518 -24.730051,1.883518 -5.495866,0 -7.75834,0.23236 -8.586016,0.88181 -0.477202,0.37445 -0.351385,21.55743 0.133052,22.401 0.174045,0.30307 0.778682,0.87136 1.343634,1.26287 l 1.027189,0.71185 16.070768,-5.4e-4 16.070768,-5.3e-4 3.05749,-0.8147 c 2.223599,-0.5925 3.963896,-1.28933 6.38085,-2.55496 3.360316,-1.75961 4.432816,-2.58313 8.750456,-6.71906 1.23017,-1.1784 2.2897,-2.08952 2.35451,-2.02471 0.0648,0.0648 -0.52295,1.33155 -1.30613,2.81498 -1.15147,2.181 -1.99489,3.3105 -4.40733,5.90224 -3.74179,4.0199 -6.353813,5.7223 -12.005164,7.82444 l -3.822033,1.42195 -3.356422,-0.0473 c -1.846031,-0.026 -9.827033,-0.12332 -17.735556,-0.2162 z"
         id="path871"
         inkscape:connector-curvature="0" />
      <path
         style="fill:#1fc1b7;stroke-width:0.26586872"
         d="m 86.47421,166.02829 c -0.506289,-0.39463 -1.243399,-1.13174 -1.638023,-1.63803 l -0.7175,-0.92053 v -9.17275 -9.17276 l 1.1869,-2.02453 c 1.019508,-1.73901 1.622424,-2.37682 4.274996,-4.52246 4.319091,-3.49367 8.731571,-5.58179 16.031277,-7.58649 4.37578,-1.2017 6.04898,-1.52476 10.27814,-1.98446 11.98833,-1.30309 16.23426,-1.60373 22.73178,-1.60955 6.54609,-0.006 8.72333,-0.24894 9.73266,-1.08661 0.34316,-0.28479 0.38638,-1.83077 0.31734,-11.35086 l -0.0799,-11.02116 -1.19641,-1.03142 -1.19641,-1.03143 -16.42177,-8e-4 -16.42176,-7.9e-4 -2.96138,0.82196 c -4.58581,1.27284 -8.78975,3.60378 -12.242944,6.78828 -1.503193,1.38623 -3.241551,3.07921 -3.863019,3.76219 -0.621469,0.68297 -1.129943,1.11588 -1.129943,0.96202 0,-0.15387 0.656728,-1.53729 1.459394,-3.07427 1.194572,-2.28741 1.973075,-3.34496 4.290196,-5.82794 3.605486,-3.86358 6.407796,-5.681554 11.880746,-7.707527 l 3.76495,-1.393707 17.8038,0.180368 17.80381,0.180365 1.32512,0.748649 c 1.22419,0.691623 1.37184,0.887122 1.93835,2.566527 l 0.61322,1.817875 -0.14316,12.51697 c -0.0787,6.88433 -0.20549,13.03049 -0.28167,13.65813 -0.17696,1.45803 -1.27815,2.73887 -2.95871,3.44136 -1.16262,0.486 -2.30665,0.55406 -14.15944,0.84243 -16.62263,0.40441 -20.39373,0.731 -26.98568,2.33708 -4.67872,1.13993 -5.40467,1.40195 -9.837142,3.55053 -4.478383,2.17083 -4.940367,2.46525 -7.195649,4.58561 -1.838062,1.7281 -2.4878,2.52547 -2.737791,3.35987 -0.197352,0.6587 -0.385545,3.604 -0.472949,7.40185 l -0.14517,6.30798 0.888946,0.93054 0.888945,0.93055 10.23595,-0.19873 c 5.62977,-0.10929 10.71451,-0.29248 11.29942,-0.40707 0.91091,-0.17846 1.14979,-0.37879 1.6652,-1.39649 0.59683,-1.17845 0.60008,-1.24558 0.39881,-8.23366 -0.11161,-3.87504 -0.20293,-8.47353 -0.20293,-10.21887 v -3.17334 l 1.36476,-0.34625 c 1.1292,-0.28649 1.5422,-0.28482 2.39282,0.01 l 1.02806,0.35589 0.069,12.68323 0.0691,12.68322 -0.70839,1.20879 c -0.52044,0.88807 -1.02075,1.34267 -1.88571,1.71343 -1.10667,0.47438 -2.01894,0.50467 -15.20351,0.50467 H 87.394738 Z m -17.512909,-33.85424 -15.02445,-0.18365 -1.368663,-0.69356 c -1.291008,-0.6542 -1.401904,-0.79344 -1.954534,-2.45409 -0.584227,-1.75561 -0.58532,-1.79824 -0.389798,-15.22881 l 0.196073,-13.46827 0.742614,-0.941396 c 0.408438,-0.517769 1.320679,-1.199624 2.027199,-1.515239 1.220265,-0.545114 2.003392,-0.595118 15.641493,-0.998758 17.015655,-0.503605 19.636674,-0.740851 26.063628,-2.359204 4.248261,-1.069742 5.322927,-1.461593 9.438337,-3.441466 4.16404,-2.003268 4.87787,-2.44792 6.9041,-4.300645 3.28961,-3.007927 3.36134,-3.228293 3.59234,-11.036153 l 0.18484,-6.247915 -0.82679,-1.129942 -0.82678,-1.129943 -4.45163,0.01965 c -8.40185,0.03711 -17.726104,0.40273 -18.305972,0.717816 -0.308495,0.167628 -0.83227,0.935601 -1.163949,1.706604 l -0.603049,1.401825 0.311138,8.512396 c 0.171127,4.681818 0.335981,9.110601 0.366344,9.84174 l 0.0552,1.329344 -1.462278,0.367202 c -1.285576,0.322828 -1.582756,0.316434 -2.459285,-0.0529 L 84.650425,90.468579 V 78.190947 65.913315 l 0.796598,-1.392306 c 0.660573,-1.154565 1.029819,-1.489232 2.162404,-1.959913 1.334289,-0.554504 1.681455,-0.567603 15.043863,-0.567603 h 13.67805 l 1.57395,1.573943 1.57394,1.573943 v 9.266759 9.266756 l -1.12994,1.902942 c -0.95394,1.606528 -1.63494,2.309536 -4.37197,4.51322 -2.76315,2.224721 -3.80382,2.870891 -7.04552,4.374684 -5.29356,2.455633 -11.87657,4.253863 -18.293344,4.997057 -10.719628,1.241553 -19.118342,1.879253 -24.791826,1.882423 -5.749082,0.003 -8.243348,0.32091 -8.746462,1.11404 -0.291522,0.45957 -0.267794,19.95284 0.02616,21.48165 0.176824,0.91968 0.489536,1.42702 1.351955,2.19342 l 1.121927,0.997 16.250266,-0.002 16.250267,-0.002 3.037534,-0.79874 c 2.877125,-0.75656 6.345611,-2.29561 9.447853,-4.19225 0.64935,-0.39699 2.50258,-1.96145 4.1183,-3.47658 1.61571,-1.51513 2.93175,-2.65172 2.92451,-2.52575 -0.007,0.12596 -0.45589,1.08788 -0.99701,2.13759 -0.69798,1.35402 -1.85595,2.83758 -3.98532,5.10591 -3.74879,3.99344 -6.315707,5.64424 -11.962091,7.6929 -3.625431,1.31541 -3.907861,1.37563 -6.247915,1.33218 -1.347963,-0.025 -9.211844,-0.12816 -17.475294,-0.22916 z"
         id="path869"
         inkscape:connector-curvature="0" />
      <path
         style="fill:#00b9ae;stroke-width:0.26586872"
         d="m 85.875734,164.98874 -1.491178,-1.49118 v -9.16356 -9.16355 l 1.105522,-1.86087 c 0.899554,-1.51418 1.6797,-2.33378 4.187433,-4.3992 4.376191,-3.60434 8.619105,-5.64447 15.894899,-7.64279 4.41814,-1.21346 6.07948,-1.53477 10.31759,-1.99544 11.99729,-1.30406 16.23049,-1.60372 22.6934,-1.60639 5.0485,-0.002 6.83538,-0.0958 8.109,-0.42525 0.89847,-0.23242 1.78913,-0.55114 1.97925,-0.70829 0.47509,-0.39269 0.35172,-22.11008 -0.13037,-22.94956 -0.17405,-0.30307 -0.77868,-0.87136 -1.34364,-1.26287 l -1.02718,-0.71184 h -16.40748 -16.40747 l -2.98665,0.82884 c -4.47733,1.24253 -9.36952,3.89564 -12.38716,6.71776 -1.268904,1.18668 -2.647999,2.45671 -3.064664,2.82228 l -0.757569,0.66467 0.935667,-1.86108 c 0.673722,-1.34007 1.804129,-2.79113 4.037844,-5.18324 3.866362,-4.14052 6.265352,-5.72858 11.701942,-7.746351 l 3.71859,-1.380138 17.81678,0.179717 17.81678,0.179719 1.19641,0.737842 c 1.02363,0.631292 1.28276,0.979396 1.79435,2.410536 l 0.59793,1.672695 -0.19913,13.47121 -0.19914,13.47121 -0.7926,0.99071 c -1.55452,1.94307 -1.6435,1.95582 -16.09006,2.3073 -16.61773,0.40429 -20.39301,0.73111 -26.98568,2.33614 -4.74419,1.155 -5.35882,1.37932 -10.10301,3.6872 -4.587536,2.23167 -5.250671,2.64293 -7.219913,4.47755 -2.955275,2.75326 -2.991895,2.87871 -3.189526,10.92689 l -0.156687,6.38085 0.763293,0.98732 0.763296,0.98732 6.513784,-0.009 c 7.137733,-0.009 15.842703,-0.33334 16.506173,-0.61435 0.23161,-0.0981 0.69869,-0.84808 1.03796,-1.66662 0.67143,-1.61993 0.67141,-1.61578 0.0963,-16.71237 l -0.17263,-4.53139 1.33155,-0.30736 c 0.98894,-0.22827 1.58064,-0.23091 2.29966,-0.0102 l 0.96811,0.29712 v 12.55067 12.55067 l -0.6679,1.19501 c -1.17372,2.10003 -0.86491,2.0624 -16.92589,2.0624 H 87.366909 Z m -16.914433,-32.81469 -15.02445,-0.18365 -1.368663,-0.69356 c -1.291008,-0.6542 -1.401904,-0.79344 -1.954534,-2.45409 -0.584227,-1.75561 -0.58532,-1.79824 -0.389798,-15.22881 l 0.196073,-13.46827 0.742614,-0.941396 c 0.408438,-0.517769 1.320679,-1.199624 2.027199,-1.515239 1.220265,-0.545114 2.003392,-0.595118 15.641493,-0.998758 17.015655,-0.503605 19.636674,-0.740851 26.063628,-2.359204 4.248261,-1.069742 5.322927,-1.461593 9.438337,-3.441466 4.16404,-2.003268 4.87787,-2.44792 6.9041,-4.300645 3.28961,-3.007927 3.36134,-3.228293 3.59234,-11.036153 l 0.18484,-6.247915 -0.82679,-1.129942 -0.82678,-1.129943 -4.45163,0.01965 c -8.40185,0.03711 -17.726104,0.40273 -18.305972,0.717816 -0.308495,0.167628 -0.83227,0.935601 -1.163949,1.706604 l -0.603049,1.401825 0.311138,8.512396 c 0.171127,4.681818 0.335981,9.110601 0.366344,9.84174 l 0.0552,1.329344 -1.462278,0.367202 c -1.285576,0.322828 -1.582756,0.316434 -2.459285,-0.0529 L 84.650425,90.468579 V 78.190947 65.913315 l 0.796598,-1.392306 c 0.660573,-1.154565 1.029819,-1.489232 2.162404,-1.959913 1.334289,-0.554504 1.681455,-0.567603 15.043863,-0.567603 h 13.67805 l 1.57395,1.573943 1.57394,1.573943 v 9.266759 9.266756 l -1.12994,1.902942 c -0.95394,1.606528 -1.63494,2.309536 -4.37197,4.51322 -2.76315,2.224721 -3.80382,2.870891 -7.04552,4.374684 -5.29356,2.455633 -11.87657,4.253863 -18.293344,4.997057 -10.719628,1.241553 -19.118342,1.879253 -24.791826,1.882423 -5.749082,0.003 -8.243348,0.32091 -8.746462,1.11404 -0.291522,0.45957 -0.267794,19.95284 0.02616,21.48165 0.176824,0.91968 0.489536,1.42702 1.351955,2.19342 l 1.121927,0.997 16.250266,-0.002 16.250267,-0.002 3.037534,-0.79874 c 2.877125,-0.75656 6.345611,-2.29561 9.447853,-4.19225 0.64935,-0.39699 2.50258,-1.96145 4.1183,-3.47658 1.61571,-1.51513 2.93175,-2.65172 2.92451,-2.52575 -0.007,0.12596 -0.45589,1.08788 -0.99701,2.13759 -0.69798,1.35402 -1.85595,2.83758 -3.98532,5.10591 -3.74879,3.99344 -6.315707,5.64424 -11.962091,7.6929 -3.625431,1.31541 -3.907861,1.37563 -6.247915,1.33218 -1.347963,-0.025 -9.211844,-0.12816 -17.475294,-0.22916 z"
         id="path867"
         inkscape:connector-curvature="0" />
      <path
         style="fill:#2e6ac3;stroke-width:0.26586872"
         d="m 68.961301,132.17405 -15.02445,-0.18365 -1.368663,-0.69356 c -1.291008,-0.6542 -1.401904,-0.79344 -1.954534,-2.45409 -0.584227,-1.75561 -0.58532,-1.79824 -0.389798,-15.22881 l 0.196073,-13.46827 0.742614,-0.941396 c 0.408438,-0.517769 1.320679,-1.199624 2.027199,-1.515239 1.220265,-0.545114 2.003392,-0.595118 15.641493,-0.998758 17.015655,-0.503605 19.636674,-0.740851 26.063628,-2.359204 4.248261,-1.069742 5.322927,-1.461593 9.438337,-3.441466 4.16404,-2.003268 4.87787,-2.44792 6.9041,-4.300645 3.28961,-3.007927 3.36134,-3.228293 3.59234,-11.036153 l 0.18484,-6.247915 -0.82679,-1.129942 -0.82678,-1.129943 -4.45163,0.01965 c -8.40185,0.03711 -17.726104,0.40273 -18.305972,0.717816 -0.308495,0.167628 -0.83227,0.935601 -1.163949,1.706604 l -0.603049,1.401825 0.311138,8.512396 c 0.171127,4.681818 0.335981,9.110601 0.366344,9.84174 l 0.0552,1.329344 -1.462278,0.367202 c -1.285576,0.322828 -1.582756,0.316434 -2.459285,-0.0529 L 84.650425,90.468579 V 78.190947 65.913315 l 0.796598,-1.392306 c 0.660573,-1.154565 1.029819,-1.489232 2.162404,-1.959913 1.334289,-0.554504 1.681455,-0.567603 15.043863,-0.567603 h 13.67805 l 1.57395,1.573943 1.57394,1.573943 v 9.266759 9.266756 l -1.12994,1.902942 c -0.95394,1.606528 -1.63494,2.309536 -4.37197,4.51322 -2.76315,2.224721 -3.80382,2.870891 -7.04552,4.374684 -5.29356,2.455633 -11.87657,4.253863 -18.293344,4.997057 -10.719628,1.241553 -19.118342,1.879253 -24.791826,1.882423 -5.749082,0.003 -8.243348,0.32091 -8.746462,1.11404 -0.291522,0.45957 -0.267794,19.95284 0.02616,21.48165 0.176824,0.91968 0.489536,1.42702 1.351955,2.19342 l 1.121927,0.997 16.250266,-0.002 16.250267,-0.002 3.037534,-0.79874 c 2.877125,-0.75656 6.345611,-2.29561 9.447853,-4.19225 0.64935,-0.39699 2.50258,-1.96145 4.1183,-3.47658 1.61571,-1.51513 2.93175,-2.65172 2.92451,-2.52575 -0.007,0.12596 -0.45589,1.08788 -0.99701,2.13759 -0.69798,1.35402 -1.85595,2.83758 -3.98532,5.10591 -3.74879,3.99344 -6.315707,5.64424 -11.962091,7.6929 -3.625431,1.31541 -3.907861,1.37563 -6.247915,1.33218 -1.347963,-0.025 -9.211844,-0.12816 -17.475294,-0.22916 z"
         id="path865"
         inkscape:connector-curvature="0" />
      <path
         style="fill:#1b5dbe;stroke-width:0.26586872"
         d="m 68.831001,131.91035 c -14.352982,-0.17434 -14.927795,-0.2007 -15.96991,-0.73235 -1.349928,-0.68868 -1.52961,-0.91748 -2.104915,-2.68035 -0.429256,-1.31532 -0.449882,-2.46342 -0.26731,-14.87867 l 0.197841,-13.45336 0.679196,-0.851207 c 0.373557,-0.468166 1.225772,-1.094691 1.893807,-1.392281 1.128547,-0.502731 2.231931,-0.571181 15.571525,-0.965986 17.03764,-0.504257 19.632069,-0.739702 26.101544,-2.368725 4.292995,-1.080985 5.355211,-1.467936 9.521761,-3.468665 4.33149,-2.079923 4.87726,-2.424087 7.14472,-4.505467 3.23543,-2.969908 3.26584,-3.068301 3.50132,-11.326349 l 0.17816,-6.247915 -1.00659,-1.163388 -1.00659,-1.163386 -10.25307,0.191481 c -5.639188,0.105316 -10.838147,0.299913 -11.553241,0.432441 -1.454042,0.269471 -1.747949,0.564878 -2.419193,2.431545 -0.433847,1.206488 -0.445463,1.899744 -0.162938,9.723548 0.167319,4.633441 0.363991,8.980211 0.437046,9.659487 l 0.132828,1.235048 -1.324457,0.317732 c -1.014784,0.243443 -1.54445,0.245128 -2.26535,0.0072 L 84.916294,90.400222 V 78.191016 65.981811 l 0.730104,-1.307678 c 0.59489,-1.065501 0.977438,-1.410194 2.06562,-1.861219 1.293616,-0.536175 1.761946,-0.553542 14.927252,-0.553542 h 13.59174 l 1.49117,1.491178 1.49118,1.491175 v 9.194576 9.194576 l -1.07195,1.804353 c -0.87688,1.476007 -1.64579,2.269072 -4.22539,4.358139 -2.64535,2.142309 -3.76849,2.844391 -6.97058,4.357367 -5.30104,2.504713 -11.815881,4.301871 -18.306984,5.050087 -10.786592,1.243347 -19.127729,1.875377 -24.791826,1.878537 -5.665607,0.003 -7.895693,0.27615 -8.871418,1.08592 -0.346839,0.28785 -0.386267,1.77506 -0.298342,11.25307 0.05572,6.00675 0.194765,11.18412 0.308982,11.50525 0.114218,0.32113 0.753419,1.00907 1.420447,1.52874 l 1.212779,0.94487 h 16.215408 16.215406 l 3.215847,-0.83403 c 4.753831,-1.23292 9.275931,-3.68355 12.716361,-6.89131 1.40257,-1.30772 2.62241,-2.37767 2.71074,-2.37767 0.0883,0 -0.13697,0.58722 -0.50067,1.30495 -0.36369,0.71772 -1.98376,2.7217 -3.60014,4.4533 -3.70284,3.96676 -6.426559,5.73441 -11.959691,7.76165 -3.617711,1.32547 -3.817695,1.3673 -6.324151,1.32293 -1.423567,-0.0252 -9.288302,-0.12721 -17.477187,-0.22668 z"
         id="path863"
         inkscape:connector-curvature="0" />
    </g>
  </g>
</svg>
